<svg width="100" height="35" viewBox="0 0 100 35" fill="none" xmlns="http://www.w3.org/2000/svg">
<rect width="100" height="35" fill="#080809"/>
<g clip-path="url(#clip0_108_77)">
<path d="M26.6424 17.0018L17.2559 26.673C16.8164 26.3516 16.5554 25.817 16.56 25.2473V8.75626C16.5554 8.18663 16.8164 7.65199 17.2559 7.33057L26.6424 17.0018Z" fill="#2196F3"/>
<path d="M29.9268 13.6236L26.6423 17.0018L17.2559 7.33053C17.2912 7.3012 17.3281 7.27392 17.3662 7.2488C17.8623 6.92708 18.4819 6.9167 18.9872 7.22156L29.9268 13.6236Z" fill="#4CAF50"/>
<path d="M33.9072 17.0017C33.9133 17.6447 33.5868 18.2387 33.0585 18.5454L29.9269 20.3798L26.6425 17.0017L29.9269 13.6235L33.0585 15.4579C33.5868 15.7646 33.9133 16.3586 33.9072 17.0017Z" fill="#F0BB1F"/>
<path d="M29.9268 20.3801L18.9872 26.7822C18.4808 27.0823 17.8635 27.0719 17.3662 26.7549C17.3281 26.7298 17.2912 26.7025 17.2559 26.6732L26.6424 17.002L29.9268 20.3801Z" fill="#F15A2B"/>
</g>
<path d="M44.8823 11.8801H42.258V13.0001H43.6561C43.4692 13.5361 43.0131 13.8641 42.3178 13.8641C41.301 13.8641 40.6729 13.1681 40.6729 12.2161C40.6729 11.2321 41.3309 10.5361 42.2131 10.5361C42.8038 10.5361 43.2748 10.8241 43.4916 11.1921L44.5085 10.5681C44.0673 9.81609 43.2225 9.28809 42.2206 9.28809C40.6804 9.28809 39.4767 10.5841 39.4767 12.2081C39.4767 13.8161 40.658 15.1121 42.3029 15.1121C43.7683 15.1121 44.8823 14.0721 44.8823 12.3601V11.8801Z" fill="white"/>
<path d="M46.3791 13.7681V12.7761H48.2483V11.5601H46.3791V10.6321H48.4352V9.40009H45.1829V15.0001H48.4726V13.7681H46.3791Z" fill="white"/>
<path d="M52.6896 9.40009H48.8017V10.6321H50.1475V15.0001H51.3438V10.6321H52.6896V9.40009Z" fill="white"/>
<path d="M54.9329 9.40009V15.0001H56.1291V9.40009H54.9329Z" fill="white"/>
<path d="M60.3263 9.40009H56.4385V10.6321H57.7843V15.0001H58.9805V10.6321H60.3263V9.40009Z" fill="white"/>
<path d="M64.3109 15.1121C65.8137 15.1121 67.0324 13.8481 67.0324 12.2001C67.0324 10.5521 65.8137 9.28809 64.3109 9.28809C62.8081 9.28809 61.5894 10.5521 61.5894 12.2001C61.5894 13.8481 62.8081 15.1121 64.3109 15.1121ZM64.3109 13.8641C63.4586 13.8641 62.7857 13.2001 62.7857 12.2001C62.7857 11.2001 63.4586 10.5361 64.3109 10.5361C65.1633 10.5361 65.8361 11.2001 65.8361 12.2001C65.8361 13.2001 65.1633 13.8641 64.3109 13.8641Z" fill="white"/>
<path d="M70.248 9.40009V12.4401L68.2293 9.40009H67.3321V15.0001H68.5284V11.9601L70.5471 15.0001H71.4443V9.40009H70.248Z" fill="white"/>
<path d="M44.8823 21.3921V21.6081C44.8823 22.3068 44.6505 22.8961 44.187 23.3761C43.7234 23.8508 43.1128 24.0881 42.3552 24.0881C41.5577 24.0881 40.8997 23.8108 40.3814 23.2561C39.863 22.6961 39.6038 22.0108 39.6038 21.2001C39.6038 20.3894 39.8605 19.7068 40.3739 19.1521C40.8873 18.5921 41.5377 18.3121 42.3253 18.3121C42.8038 18.3121 43.2424 18.4348 43.6412 18.6801C44.0449 18.9254 44.3564 19.2534 44.5758 19.6641L44.2243 19.8881C44.0499 19.5361 43.7907 19.2534 43.4468 19.0401C43.1078 18.8268 42.734 18.7201 42.3253 18.7201C41.6474 18.7201 41.0891 18.9601 40.6505 19.4401C40.2169 19.9148 40 20.5014 40 21.2001C40 21.8988 40.2194 22.4881 40.658 22.9681C41.0966 23.4428 41.6624 23.6801 42.3552 23.6801C42.9683 23.6801 43.4642 23.5014 43.843 23.1441C44.2219 22.7868 44.4337 22.3361 44.4786 21.7921H42.258V21.3921H44.8823Z" fill="white"/>
<path d="M50.1894 23.2481C49.6661 23.8081 49.028 24.0881 48.2754 24.0881C47.5228 24.0881 46.8847 23.8081 46.3614 23.2481C45.838 22.6828 45.5763 22.0001 45.5763 21.2001C45.5763 20.4001 45.838 19.7201 46.3614 19.1601C46.8847 18.5948 47.5228 18.3121 48.2754 18.3121C49.028 18.3121 49.6661 18.5948 50.1894 19.1601C50.7128 19.7201 50.9745 20.4001 50.9745 21.2001C50.9745 22.0001 50.7128 22.6828 50.1894 23.2481ZM46.638 22.9601C47.0866 23.4401 47.6324 23.6801 48.2754 23.6801C48.9184 23.6801 49.4617 23.4401 49.9053 22.9601C50.3539 22.4748 50.5782 21.8881 50.5782 21.2001C50.5782 20.5121 50.3539 19.9281 49.9053 19.4481C49.4617 18.9628 48.9184 18.7201 48.2754 18.7201C47.6324 18.7201 47.0866 18.9628 46.638 19.4481C46.1944 19.9281 45.9726 20.5121 45.9726 21.2001C45.9726 21.8881 46.1944 22.4748 46.638 22.9601Z" fill="white"/>
<path d="M56.2934 23.2481C55.77 23.8081 55.132 24.0881 54.3794 24.0881C53.6267 24.0881 52.9887 23.8081 52.4654 23.2481C51.942 22.6828 51.6803 22.0001 51.6803 21.2001C51.6803 20.4001 51.942 19.7201 52.4654 19.1601C52.9887 18.5948 53.6267 18.3121 54.3794 18.3121C55.132 18.3121 55.77 18.5948 56.2934 19.1601C56.8168 19.7201 57.0784 20.4001 57.0784 21.2001C57.0784 22.0001 56.8168 22.6828 56.2934 23.2481ZM52.742 22.9601C53.1906 23.4401 53.7364 23.6801 54.3794 23.6801C55.0224 23.6801 55.5657 23.4401 56.0093 22.9601C56.4579 22.4748 56.6822 21.8881 56.6822 21.2001C56.6822 20.5121 56.4579 19.9281 56.0093 19.4481C55.5657 18.9628 55.0224 18.7201 54.3794 18.7201C53.7364 18.7201 53.1906 18.9628 52.742 19.4481C52.2984 19.9281 52.0766 20.5121 52.0766 21.2001C52.0766 21.8881 52.2984 22.4748 52.742 22.9601Z" fill="white"/>
<path d="M63.0628 21.3921V21.6081C63.0628 22.3068 62.831 22.8961 62.3675 23.3761C61.9039 23.8508 61.2933 24.0881 60.5357 24.0881C59.7382 24.0881 59.0802 23.8108 58.5618 23.2561C58.0435 22.6961 57.7843 22.0108 57.7843 21.2001C57.7843 20.3894 58.041 19.7068 58.5544 19.1521C59.0678 18.5921 59.7182 18.3121 60.5058 18.3121C60.9843 18.3121 61.4229 18.4348 61.8217 18.6801C62.2254 18.9254 62.5369 19.2534 62.7562 19.6641L62.4048 19.8881C62.2304 19.5361 61.9712 19.2534 61.6273 19.0401C61.2883 18.8268 60.9145 18.7201 60.5058 18.7201C59.8279 18.7201 59.2696 18.9601 58.831 19.4401C58.3974 19.9148 58.1805 20.5014 58.1805 21.2001C58.1805 21.8988 58.3999 22.4881 58.8385 22.9681C59.2771 23.4428 59.8428 23.6801 60.5357 23.6801C61.1488 23.6801 61.6447 23.5014 62.0235 23.1441C62.4023 22.7868 62.6142 22.3361 62.659 21.7921H60.4385V21.3921H63.0628Z" fill="white"/>
<path d="M64.4522 23.6001H66.9194V24.0001H64.0559V18.4001H64.4522V23.6001Z" fill="white"/>
<path d="M68.1394 23.6001H70.7562V24.0001H67.7431V18.4001H70.7188V18.8001H68.1394V20.9761H70.5319V21.3761H68.1394V23.6001Z" fill="white"/>
<path d="M75.5024 18.4001C75.9709 18.4001 76.3597 18.5654 76.6687 18.8961C76.9778 19.2268 77.1323 19.6401 77.1323 20.1361C77.1323 20.6321 76.9778 21.0454 76.6687 21.3761C76.3597 21.7014 75.9709 21.8641 75.5024 21.8641H74.1192V24.0001H73.7229V18.4001H75.5024ZM75.5024 21.4641C75.8613 21.4641 76.1553 21.3388 76.3846 21.0881C76.6189 20.8374 76.736 20.5201 76.736 20.1361C76.736 19.7468 76.6189 19.4268 76.3846 19.1761C76.1553 18.9254 75.8613 18.8001 75.5024 18.8001H74.1192V21.4641H75.5024Z" fill="white"/>
<path d="M78.5074 23.6001H80.9746V24.0001H78.1111V18.4001H78.5074V23.6001Z" fill="white"/>
<path d="M85.4658 24.0001L84.9574 22.5761H82.3331L81.8247 24.0001H81.406L83.4397 18.4001H83.8583L85.8845 24.0001H85.4658ZM82.4826 22.1761H84.8154L83.649 18.9201L82.4826 22.1761Z" fill="white"/>
<path d="M89.6083 18.4001L87.7018 21.6961V24.0001H87.3055V21.6961L85.399 18.4001H85.8476L87.5074 21.2881L89.1597 18.4001H89.6083Z" fill="white"/>
<defs>
<clipPath id="clip0_108_77">
<rect width="18.6916" height="20" fill="white" transform="translate(15.8878 7)"/>
</clipPath>
</defs>
</svg>
