<svg width="149" height="165" viewBox="0 0 149 165" fill="none" xmlns="http://www.w3.org/2000/svg">
<path d="M11.5586 151.752V153.622H0.837891V151.752H11.5586ZM7.19727 147.187V158.574H5.20996V147.187H7.19727Z" fill="#E5E5E5"/>
<path d="M45.5293 116.967V118.836H34.8086V116.967H45.5293ZM41.168 112.401V123.788H39.1807V112.401H41.168Z" fill="#E5E5E5"/>
<path d="M79.4998 12.6104V14.4795H68.7791V12.6104H79.4998ZM75.1384 8.04492V19.4316H73.1511V8.04492H75.1384Z" fill="#E5E5E5"/>
<path d="M79.4998 47.3959V49.265H68.7791V47.3959H79.4998ZM75.1384 42.8304V54.2172H73.1511V42.8304H75.1384Z" fill="#E5E5E5"/>
<path d="M79.4998 82.1814V84.0505H68.7791V82.1814H79.4998ZM75.1384 77.616V89.0027H73.1511V77.616H75.1384Z" fill="#6246E5"/>
<path d="M79.4998 116.967V118.836H68.7791V116.967H79.4998ZM75.1384 112.401V123.788H73.1511V112.401H75.1384Z" fill="#E5E5E5"/>
<path d="M79.4998 151.752V153.622H68.7791V151.752H79.4998ZM75.1384 147.187V158.574H73.1511V147.187H75.1384Z" fill="#E5E5E5"/>
<path d="M113.47 12.6104V14.4795H102.75V12.6104H113.47ZM109.109 8.04492V19.4316H107.122V8.04492H109.109Z" fill="#E5E5E5"/>
<path d="M113.47 47.3959V49.265H102.75V47.3959H113.47ZM109.109 42.8304V54.2172H107.122V42.8304H109.109Z" fill="#E5E5E5"/>
<path d="M113.47 82.1814V84.0505H102.75V82.1814H113.47ZM109.109 77.616V89.0027H107.122V77.616H109.109Z" fill="#E5E5E5"/>
<path d="M113.47 116.967V118.836H102.75V116.967H113.47ZM109.109 112.401V123.788H107.122V112.401H109.109Z" fill="#E5E5E5"/>
<path d="M113.47 151.752V153.622H102.75V151.752H113.47ZM109.109 147.187V158.574H107.122V147.187H109.109Z" fill="#E5E5E5"/>
<path d="M147.441 12.6104V14.4795H136.72V12.6104H147.441ZM143.08 8.04492V19.4316H141.092V8.04492H143.08Z" fill="#FF7152"/>
<path d="M147.441 47.3959V49.265H136.72V47.3959H147.441ZM143.08 42.8304V54.2172H141.092V42.8304H143.08Z" fill="#E5E5E5"/>
<path d="M147.441 82.1814V84.0505H136.72V82.1814H147.441ZM143.08 77.616V89.0027H141.092V77.616H143.08Z" fill="#E5E5E5"/>
<path d="M147.441 116.967V118.836H136.72V116.967H147.441ZM143.08 112.401V123.788H141.092V112.401H143.08Z" fill="#E5E5E5"/>
<path d="M147.441 151.752V153.622H136.72V151.752H147.441ZM143.08 147.187V158.574H141.092V147.187H143.08Z" fill="#E5E5E5"/>
</svg>
