<svg width="16" height="17" viewBox="0 0 16 17" fill="none" xmlns="http://www.w3.org/2000/svg">
<path d="M15.8037 1.00515L9.25796 15.9132C9.20319 16.0381 9.11031 16.1405 8.99386 16.2044C8.87741 16.2684 8.74394 16.2902 8.61434 16.2665C8.48474 16.2428 8.3663 16.175 8.27756 16.0736C8.18883 15.9722 8.13478 15.8429 8.12389 15.7061L7.57048 8.77586L0.931542 8.19817C0.800421 8.1868 0.676608 8.13039 0.579465 8.03776C0.482323 7.94512 0.41733 7.8215 0.39465 7.68621C0.371971 7.55092 0.392884 7.4116 0.454119 7.29003C0.515354 7.16847 0.613458 7.07152 0.733088 7.01435L15.0146 0.181476C15.125 0.128659 15.2483 0.11237 15.3678 0.134797C15.4873 0.157224 15.5974 0.217293 15.6833 0.306937C15.7692 0.396581 15.8267 0.511508 15.8482 0.636284C15.8697 0.761061 15.8541 0.889712 15.8035 1.00496L15.8037 1.00515Z" fill="#080809"/>
</svg>
