<svg width="40" height="36" viewBox="0 0 40 36" fill="none" xmlns="http://www.w3.org/2000/svg">
<path d="M32.8464 11.1924C33.4489 12.1504 33.3681 13.291 32.6349 14.1689L16.5363 33.4546C15.8723 34.2499 14.7791 34.6554 13.6613 34.4584C12.5667 34.2651 11.6987 33.5326 11.3975 32.5473L9.01548 24.7645L8.7674 23.9549L8.12778 23.3529L1.97685 17.5677C1.19802 16.8356 0.940958 15.7793 1.30596 14.8124C1.66721 13.8565 2.57325 13.163 3.69033 13.0286L29.9328 9.8724C31.1276 9.72841 32.244 10.2345 32.8464 11.1924Z" fill="white"/>
<path d="M9.01569 24.7642L11.3977 32.5471C11.6989 33.5323 12.5668 34.2648 13.6615 34.4581C14.7793 34.6552 15.8725 34.2497 16.5364 33.4544L32.635 14.1687C33.3683 13.2907 33.449 12.1501 32.8466 11.1922L8.7676 23.9547L9.01569 24.7642Z" fill="white"/>
<path d="M18.5664 18.761C18.8114 19.1506 18.6663 19.6491 18.2414 19.8743L9.01588 24.7641L8.7678 23.9545L8.12817 23.3525L17.3537 18.4627C17.7786 18.2376 18.3214 18.3715 18.5664 18.761Z" fill="url(#paint0_linear_204_452)"/>
<path d="M9.01587 24.7644L18.2414 19.8746C18.6663 19.6494 18.8114 19.1509 18.5664 18.7613L8.76779 23.9548L9.01587 24.7644Z" fill="url(#paint1_linear_204_452)"/>
<defs>
<linearGradient id="paint0_linear_204_452" x1="15.2415" y1="19.6351" x2="16.1039" y2="21.5189" gradientUnits="userSpaceOnUse">
<stop stop-color="#747DEF"/>
<stop offset="1" stop-color="#5E3BE1"/>
</linearGradient>
<linearGradient id="paint1_linear_204_452" x1="15.6729" y1="20.3214" x2="16.1327" y2="21.2536" gradientUnits="userSpaceOnUse">
<stop stop-color="#747DEF"/>
<stop offset="1" stop-color="#5E3BE1"/>
</linearGradient>
</defs>
</svg>
