<svg width="115" height="653" viewBox="0 0 115 653" fill="none" xmlns="http://www.w3.org/2000/svg">
<path d="M72.1633 341.827C70.7893 342.3 69.4311 343.006 68.173 343.9C64.8992 346.185 62.8684 349.068 63.6373 350.339C64.4063 351.609 67.6835 350.786 70.9573 348.501C72.2294 347.629 73.3816 346.583 74.3428 345.427C74.7905 344.872 74.914 344.241 74.6579 343.82L73.659 342.17C73.4051 341.747 72.8181 341.612 72.1633 341.827Z" fill="#D5D6DB"/>
<path d="M64.1817 314.839C63.1854 315.182 62.2004 315.694 61.2882 316.343C58.9149 318 57.4416 320.09 57.9987 321.01C58.5558 321.931 60.9331 321.333 63.3061 319.677C64.2284 319.045 65.0638 318.286 65.761 317.448C66.0852 317.045 66.1745 316.589 65.9889 316.283L65.2657 315.088C65.0818 314.782 64.6565 314.684 64.1817 314.839Z" fill="#D5D6DB"/>
<path d="M51.4017 317.543C51.1849 317.552 50.9475 317.64 50.7357 317.788L45.15 321.698C44.6829 322.024 44.4636 322.555 44.6606 322.883C44.7056 322.958 44.7707 323.018 44.8522 323.06L57.3134 329.544L75.9388 316.506L51.4017 317.543Z" fill="#029BC5"/>
<path d="M107.412 312.095L58.2946 344.113L29.7174 357.44L15.3547 361.773L13.9961 359.668L95.7958 307.126C98.234 305.555 100.896 304.436 103.513 303.883C104.658 303.646 105.779 303.53 106.849 303.538C107.799 303.538 108.689 303.662 109.494 303.908C110.39 304.189 112.16 304 112.665 304.729C112.667 304.727 113.705 308.242 107.412 312.095Z" fill="#E1E6E9"/>
<path d="M60.2826 342.754L37.3031 374.931C37.0123 375.378 37.1259 375.819 37.5566 375.915C37.8208 375.974 38.1574 375.89 38.4507 375.692L43.9239 372C44.9767 371.289 45.9272 370.44 46.7168 369.505L90.0327 322.046L60.2826 342.754Z" fill="#029BC5"/>
<path d="M6.96159 341.33C6.61738 341.269 6.1923 341.389 5.8205 341.653L1.15224 344.968C0.516176 345.419 0.218607 346.151 0.487398 346.603C0.538628 346.688 0.608337 346.76 0.694384 346.815L12.4293 354.355L26.1689 344.742L6.96159 341.33Z" fill="#029BC5"/>
<path d="M17.5004 357.072L10.3201 366.087C10.215 366.216 10.2251 366.36 10.3426 366.407C10.4274 366.441 10.549 366.416 10.6523 366.344L14.8706 363.514C14.9034 363.492 14.9336 363.466 14.9591 363.438L25.3194 351.831L17.5004 357.072Z" fill="#029BC5"/>
<path d="M105.439 304.593C104.31 304.588 103.129 304.72 101.921 304.986C100.63 306.647 99.7463 308.432 99.3567 310.163C99.3105 310.507 99.5905 310.709 99.9823 310.616C100.104 310.587 100.227 310.531 100.341 310.453L108.226 305C107.378 304.728 106.44 304.591 105.439 304.593Z" fill="#029BC5"/>
<path d="M88.7622 314.438L94.1637 310.534L98.3558 317.636L92.9544 321.54L88.7622 314.438Z" fill="#D5D6DB"/>
<path d="M85.7235 316.942C85.0771 317.409 84.7719 318.16 85.0423 318.618L85.4804 319.361C85.7724 319.803 86.5256 319.77 87.1629 319.288C87.7694 318.829 88.057 318.122 87.8206 317.67L87.3825 316.928C87.1123 316.47 86.3699 316.476 85.7235 316.942Z" fill="#3A556A"/>
<path d="M81.2592 319.715C80.6128 320.182 80.3075 320.932 80.578 321.39L81.016 322.133C81.3081 322.575 82.0613 322.543 82.6986 322.06C83.305 321.601 83.5926 320.894 83.3563 320.443L82.9182 319.7C82.6477 319.242 81.9053 319.249 81.2592 319.715Z" fill="#3A556A"/>
<path d="M76.7932 322.488C76.1474 322.956 75.8432 323.705 76.1134 324.163L76.5514 324.905C76.8435 325.348 77.5967 325.315 78.234 324.833C78.8404 324.373 79.128 323.667 78.8917 323.215L78.4536 322.473C78.1832 322.014 77.4399 322.021 76.7932 322.488Z" fill="#3A556A"/>
<path d="M72.3288 325.261C71.6831 325.728 71.3788 326.477 71.649 326.935L72.0871 327.678C72.3791 328.12 73.1323 328.088 73.7696 327.605C74.3761 327.146 74.6637 326.439 74.4273 325.987L73.9892 325.245C73.7185 324.787 72.9753 324.794 72.3288 325.261Z" fill="#3A556A"/>
<path d="M67.8656 328.034C67.2191 328.502 66.9145 329.252 67.185 329.711L67.6236 330.455C67.894 330.913 68.6373 330.906 69.2839 330.439C69.9305 329.971 70.2355 329.221 69.9651 328.763L69.5265 328.019C69.2569 327.56 68.5139 327.567 67.8669 328.033C67.8664 328.034 67.8661 328.034 67.8656 328.034Z" fill="#3A556A"/>
<path d="M63.4012 330.807C62.7547 331.275 62.4501 332.025 62.7206 332.483L63.1592 333.227C63.4296 333.685 64.173 333.678 64.8195 333.211C65.4661 332.744 65.7711 331.994 65.5007 331.535L65.0621 330.792C64.7925 330.333 64.0495 330.339 63.4026 330.806C63.402 330.806 63.4015 330.806 63.4012 330.807Z" fill="#3A556A"/>
<path d="M58.9366 333.579C58.2901 334.047 57.9855 334.797 58.256 335.256L58.6946 335.999C58.9658 336.457 59.7096 336.449 60.3555 335.981C61.0004 335.514 61.3047 334.766 61.0357 334.308L60.5971 333.564C60.3269 333.105 59.5836 333.112 58.9366 333.579Z" fill="#3A556A"/>
<path d="M54.472 336.351C53.8255 336.819 53.5209 337.57 53.7914 338.028L54.23 338.772C54.5012 339.23 55.245 339.221 55.8909 338.754C56.5358 338.287 56.8401 337.538 56.5711 337.08L56.1325 336.337C55.8623 335.878 55.119 335.885 54.472 336.351Z" fill="#3A556A"/>
<path d="M50.0076 339.124C49.3611 339.592 49.0566 340.342 49.327 340.801L49.7656 341.544C50.0368 342.002 50.7806 341.994 51.4266 341.526C52.0714 341.059 52.3758 340.311 52.1068 339.853L51.6682 339.109C51.3977 338.651 50.6544 338.657 50.0076 339.124Z" fill="#3A556A"/>
<path d="M45.5418 341.897C44.8952 342.364 44.5903 343.115 44.8606 343.573L44.8612 343.574L45.2998 344.318C45.571 344.775 46.3148 344.767 46.9608 344.3C47.6056 343.833 47.9099 343.084 47.641 342.626L47.2024 341.883C46.9321 341.424 46.1889 341.43 45.5418 341.897Z" fill="#3A556A"/>
<path d="M41.0787 344.669C40.4321 345.136 40.1271 345.886 40.3975 346.345L40.3981 346.346L40.8367 347.089C41.1079 347.547 41.8517 347.539 42.4977 347.071C43.1425 346.604 43.4469 345.856 43.1779 345.398L42.7393 344.654C42.4688 344.195 41.7255 344.202 41.0787 344.669Z" fill="#3A556A"/>
</svg>
