<svg width="14" height="15" viewBox="0 0 14 15" fill="none" xmlns="http://www.w3.org/2000/svg">
<path d="M0.612178 13.7943H1.91744V6.03666C1.91744 5.90684 2.01485 5.80158 2.13498 5.80158H5.1806V0.394748C5.1806 0.264925 5.278 0.159668 5.39814 0.159668H11.0543C11.1744 0.159668 11.2718 0.264925 11.2718 0.394748V13.7943H13.2297C13.3499 13.7943 13.4473 13.8995 13.4473 14.0294C13.4473 14.1592 13.3499 14.2645 13.2297 14.2645H0.612178C0.49204 14.2645 0.394634 14.1592 0.394634 14.0294C0.394634 13.8995 0.49204 13.7943 0.612178 13.7943ZM8.87884 13.7943H9.74902V11.6786C9.74902 11.5488 9.65161 11.4435 9.53148 11.4435H9.09639C8.97625 11.4435 8.87884 11.5488 8.87884 11.6786V13.7943ZM8.00867 6.03666V13.7943H8.44376V11.6786C8.44376 11.2891 8.73595 10.9733 9.09639 10.9733H9.53148C9.89192 10.9733 10.1841 11.2891 10.1841 11.6786V13.7943H10.8367V0.629827H5.61569V5.80158H7.79113C7.91126 5.80158 8.00867 5.90684 8.00867 6.03666ZM2.35253 13.7943H7.57358V6.27174H2.35253V13.7943Z" fill="#84829A"/>
<path d="M6.48598 3.45068H7.79125C7.91138 3.45068 8.00879 3.55594 8.00879 3.68576V5.09624C8.00879 5.22606 7.91138 5.33132 7.79125 5.33132H6.48598C6.36584 5.33132 6.26844 5.22606 6.26844 5.09624V3.68576C6.26844 3.55594 6.36584 3.45068 6.48598 3.45068ZM6.70353 4.86116H7.5737V3.92084H6.70353V4.86116Z" fill="#84829A"/>
<path d="M6.48598 1.1001H7.79125C7.91138 1.1001 8.00879 1.20535 8.00879 1.33518V2.74566C8.00879 2.87548 7.91138 2.98074 7.79125 2.98074H6.48598C6.36584 2.98074 6.26844 2.87548 6.26844 2.74566V1.33518C6.26844 1.20535 6.36584 1.1001 6.48598 1.1001ZM6.70353 2.51058H7.5737V1.57026H6.70353V2.51058Z" fill="#84829A"/>
<path d="M8.66152 3.45068H9.96678C10.0869 3.45068 10.1843 3.55594 10.1843 3.68576V5.09624C10.1843 5.22606 10.0869 5.33132 9.96678 5.33132H8.66152C8.54138 5.33132 8.44398 5.22606 8.44398 5.09624V3.68576C8.44398 3.55594 8.54138 3.45068 8.66152 3.45068ZM8.87906 4.86116H9.74924V3.92084H8.87906V4.86116Z" fill="#84829A"/>
<path d="M8.66152 1.1001H9.96678C10.0869 1.1001 10.1843 1.20535 10.1843 1.33518V2.74566C10.1843 2.87548 10.0869 2.98074 9.96678 2.98074H8.66152C8.54138 2.98074 8.44398 2.87548 8.44398 2.74566V1.33518C8.44398 1.20535 8.54138 1.1001 8.66152 1.1001ZM8.87906 2.51058H9.74924V1.57026H8.87906V2.51058Z" fill="#84829A"/>
<path d="M8.66152 5.80176H9.96678C10.0869 5.80176 10.1843 5.90701 10.1843 6.03684V7.44732C10.1843 7.57714 10.0869 7.6824 9.96678 7.6824H8.66152C8.54138 7.6824 8.44398 7.57714 8.44398 7.44732V6.03684C8.44398 5.90701 8.54138 5.80176 8.66152 5.80176ZM8.87906 7.21224H9.74924V6.27192H8.87906V7.21224Z" fill="#84829A"/>
<path d="M8.66152 8.15234H9.96678C10.0869 8.15234 10.1843 8.2576 10.1843 8.38742V9.7979C10.1843 9.92772 10.0869 10.033 9.96678 10.033H8.66152C8.54138 10.033 8.44398 9.92772 8.44398 9.7979V8.38742C8.44398 8.2576 8.54138 8.15234 8.66152 8.15234ZM8.87906 9.56282H9.74924V8.6225H8.87906V9.56282Z" fill="#84829A"/>
<path d="M4.52831 10.9734H3.22304C3.1029 10.9734 3.0055 10.8682 3.0055 10.7383V9.32785C3.0055 9.19803 3.1029 9.09277 3.22304 9.09277H4.52831C4.64844 9.09277 4.74585 9.19803 4.74585 9.32785V10.7383C4.74585 10.8682 4.64844 10.9734 4.52831 10.9734ZM4.31076 9.56293H3.44059V10.5033H4.31076V9.56293Z" fill="#84829A"/>
<path d="M4.52831 8.62234H3.22304C3.1029 8.62234 3.0055 8.51708 3.0055 8.38726V6.97678C3.0055 6.84696 3.1029 6.7417 3.22304 6.7417H4.52831C4.64844 6.7417 4.74585 6.84696 4.74585 6.97678V8.38726C4.74585 8.51708 4.64844 8.62234 4.52831 8.62234ZM4.31076 7.21186H3.44059V8.15218H4.31076V7.21186Z" fill="#84829A"/>
<path d="M4.52831 13.324H3.22304C3.1029 13.324 3.0055 13.2187 3.0055 13.0889V11.6784C3.0055 11.5486 3.1029 11.4434 3.22304 11.4434H4.52831C4.64844 11.4434 4.74585 11.5486 4.74585 11.6784V13.0889C4.74585 13.2187 4.64844 13.324 4.52831 13.324ZM4.31076 11.9135H3.44059V12.8538H4.31076V11.9135Z" fill="#84829A"/>
<path d="M6.7036 10.9734H5.39834C5.2782 10.9734 5.18079 10.8682 5.18079 10.7383V9.32785C5.18079 9.19803 5.2782 9.09277 5.39834 9.09277H6.7036C6.82374 9.09277 6.92114 9.19803 6.92114 9.32785V10.7383C6.92114 10.8682 6.82374 10.9734 6.7036 10.9734ZM6.48605 9.56293H5.61588V10.5033H6.48605V9.56293Z" fill="#84829A"/>
<path d="M6.7036 8.62234H5.39834C5.2782 8.62234 5.18079 8.51708 5.18079 8.38726V6.97678C5.18079 6.84696 5.2782 6.7417 5.39834 6.7417H6.7036C6.82374 6.7417 6.92114 6.84696 6.92114 6.97678V8.38726C6.92114 8.51708 6.82374 8.62234 6.7036 8.62234ZM6.48605 7.21186H5.61588V8.15218H6.48605V7.21186Z" fill="#84829A"/>
<path d="M6.7036 13.324H5.39834C5.2782 13.324 5.18079 13.2187 5.18079 13.0889V11.6784C5.18079 11.5486 5.2782 11.4434 5.39834 11.4434H6.7036C6.82374 11.4434 6.92114 11.5486 6.92114 11.6784V13.0889C6.92114 13.2187 6.82374 13.324 6.7036 13.324ZM6.48605 11.9135H5.61588V12.8538H6.48605V11.9135Z" fill="#84829A"/>
</svg>
