<svg width="13" height="13" viewBox="0 0 13 13" fill="none" xmlns="http://www.w3.org/2000/svg">
<g clip-path="url(#clip0_202_285)">
<path d="M12.1129 0.711575C11.812 0.616409 4.45105 -0.17553 1.86595 3.59851C0.721033 5.27042 0.703834 7.56233 1.80857 10.4101C1.52833 11.0386 1.28301 11.7007 1.08307 12.3994C1.02228 12.6117 1.13223 12.8368 1.32847 12.9022C1.36505 12.9145 1.4021 12.9203 1.43868 12.9203C1.59733 12.9203 1.74462 12.8095 1.79378 12.6371C3.76409 5.75355 10.1672 2.4234 12.1307 1.58212C12.3218 1.50019 12.5772 0.858421 12.1129 0.711575Z" fill="#84829A"/>
<path d="M2.99023 11.2715C4.05598 11.7546 5.12157 12.0022 6.1125 12.0022C7.00319 12.0022 7.83382 11.8043 8.5496 11.4031C9.99014 10.5955 10.8704 9.05089 11.0952 6.93563C11.3242 4.77986 11.6094 3.42956 11.8472 2.60352C9.73 3.65887 5.1903 6.39443 2.99023 11.2715Z" fill="#84829A"/>
</g>
<defs>
<clipPath id="clip0_202_285">
<rect width="11.4211" height="12.3417" fill="white" transform="translate(0.973633 0.578613)"/>
</clipPath>
</defs>
</svg>
