<svg width="12" height="14" viewBox="0 0 12 14" fill="none" xmlns="http://www.w3.org/2000/svg">
<g clip-path="url(#clip0_202_299)">
<path d="M11.2246 0.697266C11.1612 0.69724 11.0988 0.713149 11.0421 0.743753L7.95111 2.41427L4.45592 0.735385C4.45021 0.732751 4.44368 0.732286 4.43756 0.729652C4.42184 0.723298 4.40575 0.718004 4.38943 0.713794C4.3732 0.709068 4.35671 0.705375 4.34008 0.702767C4.30695 0.699822 4.27366 0.699822 4.24056 0.702767C4.22393 0.705375 4.20743 0.709068 4.19121 0.713794C4.17488 0.718004 4.1588 0.723298 4.14307 0.729652C4.13695 0.732286 4.13043 0.732725 4.12472 0.735385L0.453721 2.49846C0.306355 2.56918 0.211402 2.72708 0.211426 2.9013V12.5982C0.211497 12.7473 0.281309 12.8863 0.397007 12.9676C0.512729 13.049 0.658685 13.0616 0.784899 13.0011L4.29029 11.3173L7.79569 13.0011C7.80181 13.0037 7.80833 13.0011 7.81445 13.005C7.9132 13.0528 8.02656 13.05 8.12321 12.9976C8.12974 12.9945 8.13707 12.9976 8.1436 12.9927L11.4067 11.2296C11.545 11.155 11.6323 11.0022 11.6323 10.8351V1.13825C11.6324 0.894811 11.4499 0.697369 11.2246 0.697266ZM3.88242 10.5486L1.02719 11.9198V3.18782L3.88242 1.81657V10.5486ZM7.55342 11.9198L4.69819 10.5486V1.81657L7.55342 3.18779V11.9198ZM10.8165 10.5627L8.36919 11.885V3.17369L10.8165 1.85139V10.5627Z" fill="#84829A"/>
</g>
<defs>
<clipPath id="clip0_202_299">
<rect width="11.4211" height="12.3417" fill="white" transform="translate(0.210693 0.697266)"/>
</clipPath>
</defs>
</svg>
