<svg width="12" height="13" viewBox="0 0 12 13" fill="none" xmlns="http://www.w3.org/2000/svg">
<path d="M10.0696 1.67395L4.91583 7.2637C4.85675 7.22671 4.79462 7.19572 4.73024 7.17114L1.32772 5.92669C1.22482 5.89882 1.13349 5.8346 1.06823 5.74422C1.00297 5.65385 0.967529 5.54251 0.967529 5.42788C0.967529 5.31324 1.00297 5.2019 1.06823 5.11153C1.13349 5.02115 1.22482 4.95693 1.32772 4.92907L9.76978 1.68423C9.82496 1.66398 9.88282 1.65356 9.9411 1.65338C9.98468 1.65262 10.0281 1.65957 10.0696 1.67395Z" fill="#84829A"/>
<path d="M10.3979 2.36303L7.3951 11.4959C7.36199 11.6023 7.29755 11.6941 7.21162 11.7573C7.12569 11.8204 7.02299 11.8514 6.91922 11.8456C6.81425 11.8508 6.71064 11.8183 6.62456 11.7531C6.53848 11.688 6.47476 11.594 6.44334 11.4856L5.31076 7.8088C5.288 7.73923 5.25933 7.67209 5.2251 7.60825L10.4074 2.03906C10.4366 2.14534 10.4333 2.25897 10.3979 2.36303Z" fill="#84829A"/>
</svg>
